<?xml version="1.0" standalone="no"?>
<!DOCTYPE svg PUBLIC "-//W3C//DTD SVG 20010904//EN"
 "http://www.w3.org/TR/2001/REC-SVG-20010904/DTD/svg10.dtd">
<svg version="1.0" xmlns="http://www.w3.org/2000/svg"
 width="700.000000pt" height="700.000000pt" viewBox="0 0 700.000000 700.000000"
 preserveAspectRatio="xMidYMid meet">
<metadata>
Created by potrace 1.11, written by Peter Selinger 2001-2013
</metadata>
<g transform="translate(0.000000,700.000000) scale(0.100000,-0.100000)"
fill="#000000" stroke="none">
<path d="M3587 6564 c-1 -1 -63 -4 -137 -8 -74 -3 -164 -10 -200 -16 -36 -5
-87 -12 -115 -16 -27 -3 -52 -8 -55 -9 -3 -2 -26 -6 -50 -10 -25 -3 -88 -17
-140 -31 -52 -14 -99 -27 -105 -28 -37 -9 -135 -40 -160 -51 -16 -6 -68 -27
-115 -45 -204 -80 -490 -240 -664 -372 -45 -34 -86 -67 -92 -72 -7 -6 -31 -27
-55 -46 -110 -87 -279 -264 -424 -441 -86 -106 -212 -305 -297 -469 -143 -276
-264 -662 -293 -935 -4 -33 -8 -67 -10 -75 -22 -89 -22 -557 1 -673 2 -11 6
-43 9 -71 15 -128 96 -464 134 -557 5 -13 26 -67 46 -119 255 -661 796 -1245
1450 -1564 203 -99 470 -193 655 -230 208 -41 253 -48 434 -62 155 -11 448 -6
532 10 11 2 48 7 84 11 36 4 67 8 70 10 3 2 26 6 50 10 136 19 430 106 600
177 360 151 668 356 946 633 241 240 415 481 572 790 22 44 50 105 62 135 12
30 25 59 29 65 8 11 89 254 115 345 20 73 63 295 76 395 21 171 28 415 15 565
-9 113 -15 174 -20 200 -2 14 -7 43 -10 65 -8 59 -15 98 -20 115 -2 8 -7 29
-9 45 -20 115 -101 368 -168 525 -222 519 -576 953 -1042 1280 -77 53 -319
200 -331 200 -2 0 -44 19 -92 43 -222 107 -451 179 -773 242 -8 1 -44 6 -80
10 -36 4 -76 9 -90 11 -56 7 -328 22 -333 18z m1759 -1493 c119 -33 205 -151
205 -285 1 -126 62 -59 -1213 -1332 -768 -767 -1166 -1157 -1191 -1168 -85
-39 -197 -35 -272 9 -22 12 -292 274 -599 582 -605 604 -605 604 -611 716 -6
119 54 224 159 279 51 26 79 32 149 30 111 -3 125 -14 606 -496 l439 -439
1030 1031 c706 706 1043 1037 1073 1053 73 38 140 44 225 20z"/>
</g>
</svg>
